<svg width="1500" height="900" viewBox="0 0 1500 900" fill="none" xmlns="http://www.w3.org/2000/svg">
  <rect width="1500" height="900" fill="#0B1020"/>
  <text x="750" y="54" text-anchor="middle" fill="#F8FAFC" font-family="Inter, Arial, sans-serif" font-size="28" font-weight="700">Pre-auth welcome cards concept</text>
  <text x="750" y="88" text-anchor="middle" fill="#94A3B8" font-family="Inter, Arial, sans-serif" font-size="16">Cards 3 and 4: continuity and learning method as app-like scenes</text>

  <g transform="translate(180 105)">
    <rect x="0" y="0" width="500" height="735" rx="54" fill="#101827" stroke="#263449" stroke-width="2"/>
    <rect x="23" y="24" width="454" height="687" rx="38" fill="#0F172A"/>
    <rect x="215" y="42" width="70" height="5" rx="2.5" fill="#334155"/>
    <text x="58" y="88" fill="#E2E8F0" font-family="Inter, Arial, sans-serif" font-size="17" font-weight="700">MentoMate</text>
    <circle cx="415" cy="82" r="4" fill="#475569"/>
    <circle cx="432" cy="82" r="4" fill="#475569"/>
    <circle cx="449" cy="82" r="4" fill="#2DD4BF"/>
    <circle cx="466" cy="82" r="4" fill="#475569"/>

    <rect x="58" y="122" width="384" height="250" rx="24" fill="#151F32" stroke="#263449"/>
    <text x="86" y="163" fill="#E2E8F0" font-family="Inter, Arial, sans-serif" font-size="17" font-weight="800">Your next step</text>
    <rect x="86" y="187" width="300" height="46" rx="16" fill="#1E293B"/>
    <text x="108" y="216" fill="#94A3B8" font-family="Inter, Arial, sans-serif" font-size="13" font-weight="700">Last time</text>
    <text x="210" y="216" fill="#F8FAFC" font-family="Inter, Arial, sans-serif" font-size="15" font-weight="800">Fractions</text>
    <rect x="86" y="246" width="300" height="58" rx="18" fill="#172C36" stroke="#2DD4BF" stroke-opacity=".5"/>
    <text x="108" y="272" fill="#2DD4BF" font-family="Inter, Arial, sans-serif" font-size="13" font-weight="800">Next</text>
    <text x="108" y="293" fill="#DFFCF7" font-family="Inter, Arial, sans-serif" font-size="16" font-weight="800">Practice mixed numbers</text>
    <rect x="86" y="318" width="143" height="28" rx="14" fill="#241F3F"/>
    <text x="157" y="337" text-anchor="middle" fill="#EDE9FE" font-family="Inter, Arial, sans-serif" font-size="12" font-weight="800">Short bursts</text>
    <rect x="239" y="318" width="147" height="28" rx="14" fill="#20283A"/>
    <text x="312" y="337" text-anchor="middle" fill="#CBD5E1" font-family="Inter, Arial, sans-serif" font-size="12" font-weight="800">Steady routine</text>

    <text x="250" y="449" text-anchor="middle" fill="#F8FAFC" font-family="Inter, Arial, sans-serif" font-size="34" font-weight="800">Picks up where</text>
    <text x="250" y="489" text-anchor="middle" fill="#F8FAFC" font-family="Inter, Arial, sans-serif" font-size="34" font-weight="800">you left off</text>
    <text x="250" y="536" text-anchor="middle" fill="#CBD5E1" font-family="Inter, Arial, sans-serif" font-size="18">Your mentor remembers your progress,</text>
    <text x="250" y="563" text-anchor="middle" fill="#CBD5E1" font-family="Inter, Arial, sans-serif" font-size="18">adapts to your pace, and helps with</text>
    <text x="250" y="590" text-anchor="middle" fill="#CBD5E1" font-family="Inter, Arial, sans-serif" font-size="18">quick bursts or steady routines.</text>

    <rect x="58" y="634" width="384" height="54" rx="18" fill="#2DD4BF"/>
    <text x="250" y="668" text-anchor="middle" fill="#06121F" font-family="Inter, Arial, sans-serif" font-size="17" font-weight="800">Next</text>
  </g>

  <g transform="translate(820 105)">
    <rect x="0" y="0" width="500" height="735" rx="54" fill="#101827" stroke="#263449" stroke-width="2"/>
    <rect x="23" y="24" width="454" height="687" rx="38" fill="#0F172A"/>
    <rect x="215" y="42" width="70" height="5" rx="2.5" fill="#334155"/>
    <text x="58" y="88" fill="#E2E8F0" font-family="Inter, Arial, sans-serif" font-size="17" font-weight="700">MentoMate</text>
    <circle cx="415" cy="82" r="4" fill="#475569"/>
    <circle cx="432" cy="82" r="4" fill="#475569"/>
    <circle cx="449" cy="82" r="4" fill="#475569"/>
    <circle cx="466" cy="82" r="4" fill="#2DD4BF"/>

    <rect x="58" y="122" width="384" height="250" rx="24" fill="#151F32" stroke="#263449"/>
    <text x="86" y="163" fill="#E2E8F0" font-family="Inter, Arial, sans-serif" font-size="17" font-weight="800">How help works</text>
    <rect x="86" y="190" width="155" height="42" rx="16" fill="#172C36" stroke="#2DD4BF" stroke-opacity=".45"/>
    <text x="164" y="216" text-anchor="middle" fill="#DFFCF7" font-family="Inter, Arial, sans-serif" font-size="14" font-weight="800">Clear explanation</text>
    <rect x="251" y="190" width="135" height="42" rx="16" fill="#241F3F" stroke="#A78BFA" stroke-opacity=".45"/>
    <text x="319" y="216" text-anchor="middle" fill="#EDE9FE" font-family="Inter, Arial, sans-serif" font-size="14" font-weight="800">Think it through</text>
    <rect x="86" y="246" width="147" height="42" rx="16" fill="#20283A" stroke="#64748B" stroke-opacity=".5"/>
    <text x="160" y="272" text-anchor="middle" fill="#E2E8F0" font-family="Inter, Arial, sans-serif" font-size="14" font-weight="800">Practice in context</text>
    <rect x="243" y="246" width="143" height="42" rx="16" fill="#20283A" stroke="#64748B" stroke-opacity=".5"/>
    <text x="315" y="272" text-anchor="middle" fill="#E2E8F0" font-family="Inter, Arial, sans-serif" font-size="14" font-weight="800">Remember it later</text>
    <rect x="86" y="316" width="300" height="10" rx="5" fill="#334155"/>
    <rect x="86" y="316" width="204" height="10" rx="5" fill="#2DD4BF"/>
    <text x="86" y="352" fill="#94A3B8" font-family="Inter, Arial, sans-serif" font-size="12" font-weight="700">Explain -> practice -> remember</text>

    <text x="250" y="449" text-anchor="middle" fill="#F8FAFC" font-family="Inter, Arial, sans-serif" font-size="34" font-weight="800">Built for real</text>
    <text x="250" y="489" text-anchor="middle" fill="#F8FAFC" font-family="Inter, Arial, sans-serif" font-size="34" font-weight="800">learning</text>
    <text x="250" y="536" text-anchor="middle" fill="#CBD5E1" font-family="Inter, Arial, sans-serif" font-size="18">Clear explanations, guided questions,</text>
    <text x="250" y="563" text-anchor="middle" fill="#CBD5E1" font-family="Inter, Arial, sans-serif" font-size="18">and practice that sticks help you think,</text>
    <text x="250" y="590" text-anchor="middle" fill="#CBD5E1" font-family="Inter, Arial, sans-serif" font-size="18">practice, and remember.</text>

    <rect x="58" y="634" width="384" height="54" rx="18" fill="#2DD4BF"/>
    <text x="250" y="668" text-anchor="middle" fill="#06121F" font-family="Inter, Arial, sans-serif" font-size="17" font-weight="800">Let's start</text>
  </g>
</svg>
