<?xml version="1.0" encoding="UTF-8"?>
<svg width="1200" height="850" viewBox="0 0 1200 850" fill="none" xmlns="http://www.w3.org/2000/svg">
<title>Octopus Mascot V2 - closer to reference</title>
<desc>More realistic teal octopus mascot with elongated head/body, long arms, purple beanie, relaxed eyes, smile, and icon variants.</desc>
<defs>
  <radialGradient id="bg" cx="45%" cy="40%" r="66%">
    <stop offset="0%" stop-color="#12383c"/>
    <stop offset="52%" stop-color="#0b1f26"/>
    <stop offset="100%" stop-color="#070b12"/>
  </radialGradient>
  <radialGradient id="tealBody" cx="42%" cy="25%" r="72%">
    <stop offset="0%" stop-color="#47fff0"/>
    <stop offset="38%" stop-color="#10b7ad"/>
    <stop offset="74%" stop-color="#067d80"/>
    <stop offset="100%" stop-color="#035263"/>
  </radialGradient>
  <linearGradient id="tentacle" x1="250" y1="160" x2="640" y2="700" gradientUnits="userSpaceOnUse">
    <stop offset="0%" stop-color="#24e4d4"/>
    <stop offset="42%" stop-color="#0ca99d"/>
    <stop offset="100%" stop-color="#034f62"/>
  </linearGradient>
  <linearGradient id="underside" x1="0" y1="0" x2="0" y2="1">
    <stop offset="0%" stop-color="#0e807f"/>
    <stop offset="100%" stop-color="#033b4c"/>
  </linearGradient>
  <linearGradient id="hat" x1="0" y1="0" x2="0" y2="1">
    <stop offset="0%" stop-color="#a675ff"/>
    <stop offset="100%" stop-color="#5a2fb0"/>
  </linearGradient>
  <linearGradient id="hatBand" x1="0" y1="0" x2="1" y2="0">
    <stop offset="0%" stop-color="#9a61f5"/>
    <stop offset="55%" stop-color="#c099ff"/>
    <stop offset="100%" stop-color="#8d55e8"/>
  </linearGradient>
  <radialGradient id="cup" cx="35%" cy="30%" r="75%">
    <stop offset="0%" stop-color="#f2fffb"/>
    <stop offset="55%" stop-color="#9af4e7"/>
    <stop offset="100%" stop-color="#42bdb4"/>
  </radialGradient>
  <filter id="shadow" x="-30%" y="-30%" width="170%" height="180%">
    <feDropShadow dx="0" dy="25" stdDeviation="25" flood-color="#000" flood-opacity=".42"/>
  </filter>
  <filter id="soft" x="-20%" y="-20%" width="140%" height="150%">
    <feGaussianBlur stdDeviation="12"/>
  </filter>
  <style>
    .label{font-family:Inter,Arial,sans-serif;font-size:22px;fill:#bdece7;opacity:.92}
    .eyeLine{stroke:#07121a;stroke-width:9;stroke-linecap:round}
    .smile{stroke:#06121b;stroke-width:9;stroke-linecap:round;fill:none}
  </style>
</defs>

<rect width="1200" height="850" fill="url(#bg)"/>
<ellipse cx="375" cy="360" rx="315" ry="295" fill="#1af8df" opacity=".12" filter="url(#soft)"/>

<!-- MAIN CLOSER MASCOT -->
<g id="main" transform="translate(55 30)" filter="url(#shadow)">
  <!-- back arms: long, curled, less cartoon-flat -->
  <path d="M332 386 C225 378 123 331 74 246 C48 201 76 174 110 212 C177 287 226 301 302 295" stroke="url(#tentacle)" stroke-width="50" stroke-linecap="round"/>
  <path d="M472 384 C583 372 675 323 716 237 C739 190 775 215 761 263 C734 355 604 410 497 423" stroke="url(#tentacle)" stroke-width="50" stroke-linecap="round"/>
  <path d="M318 426 C208 451 129 526 96 636 C82 683 126 701 153 662 C203 589 235 541 315 509" stroke="url(#tentacle)" stroke-width="52" stroke-linecap="round"/>
  <path d="M487 424 C591 454 666 532 695 642 C708 689 664 705 638 667 C591 598 554 545 478 510" stroke="url(#tentacle)" stroke-width="52" stroke-linecap="round"/>

  <!-- central elongated head/body -->
  <path d="M405 72
           C502 72 566 143 556 247
           C550 322 531 381 500 448
           C475 504 476 562 505 633
           C526 684 492 730 449 704
           C414 682 405 617 402 557
           C399 520 392 498 381 498
           C368 498 357 522 349 564
           C337 625 324 693 280 711
           C235 729 212 675 235 626
           C264 564 268 507 239 445
           C209 382 196 321 195 250
           C193 144 264 72 405 72Z"
        fill="url(#tealBody)"/>

  <!-- front arms -->
  <path d="M350 439 C264 482 214 566 204 686 C201 730 248 743 266 703 C288 653 306 590 365 535" stroke="url(#tentacle)" stroke-width="55" stroke-linecap="round"/>
  <path d="M455 438 C542 483 592 566 603 686 C607 730 559 743 541 704 C520 656 502 591 442 535" stroke="url(#tentacle)" stroke-width="55" stroke-linecap="round"/>
  <path d="M397 465 C358 540 333 628 348 741 C354 784 407 786 414 742 C422 686 425 601 443 516" stroke="url(#tentacle)" stroke-width="55" stroke-linecap="round"/>

  <!-- internal shadows/highlights -->
  <path d="M268 139 C245 185 244 244 254 300" stroke="#6ffff1" stroke-width="18" stroke-linecap="round" opacity=".30"/>
  <path d="M168 596 C203 531 253 485 323 455" stroke="#70ffee" stroke-width="14" stroke-linecap="round" opacity=".25"/>
  <path d="M640 603 C606 536 557 489 487 455" stroke="#70ffee" stroke-width="14" stroke-linecap="round" opacity=".22"/>
  <path d="M402 116 C493 123 522 193 510 279" stroke="#07121a" stroke-width="18" stroke-linecap="round" opacity=".10"/>

  <!-- suction cups placed along arms -->
  <g fill="url(#cup)" opacity=".92">
    <circle cx="135" cy="259" r="13"/><circle cx="203" cy="326" r="12"/><circle cx="707" cy="265" r="12"/><circle cx="638" cy="331" r="12"/>
    <circle cx="152" cy="616" r="12"/><circle cx="200" cy="569" r="12"/><circle cx="255" cy="527" r="12"/><circle cx="311" cy="497" r="12"/>
    <circle cx="651" cy="620" r="12"/><circle cx="602" cy="572" r="12"/><circle cx="546" cy="528" r="12"/><circle cx="494" cy="499" r="12"/>
    <circle cx="260" cy="671" r="11"/><circle cx="284" cy="714" r="9"/><circle cx="354" cy="690" r="10"/><circle cx="383" cy="739" r="8"/>
    <circle cx="538" cy="671" r="11"/><circle cx="515" cy="714" r="9"/><circle cx="452" cy="688" r="10"/>
  </g>

  <!-- purple beanie / hat -->
  <path d="M221 168 C235 93 300 43 406 43 C507 43 568 96 581 168 C494 196 311 196 221 168Z" fill="url(#hat)"/>
  <path d="M217 156 C307 181 496 183 585 156 C602 151 614 165 611 184 L606 212 C603 231 581 237 566 227 C473 244 335 244 243 227 C228 238 207 232 203 213 L198 185 C195 166 202 152 217 156Z" fill="url(#hatBand)"/>
  <path d="M240 199 C330 218 480 219 570 199" stroke="#d6b9ff" stroke-width="8" stroke-linecap="round" opacity=".45"/>

  <!-- eyes: relaxed but not alien -->
  <rect x="314" y="276" width="82" height="54" rx="22" fill="#fbfaf3"/>
  <rect x="423" y="276" width="82" height="54" rx="22" fill="#fbfaf3"/>
  <circle cx="356" cy="303" r="18" fill="#29305e"/>
  <circle cx="463" cy="303" r="18" fill="#29305e"/>
  <path d="M310 271 H397" class="eyeLine"/>
  <path d="M419 271 H506" class="eyeLine"/>
  <path d="M314 276 H396 V296 C368 290 340 290 314 296Z" fill="#0aa89d"/>
  <path d="M423 276 H505 V296 C477 290 449 290 423 296Z" fill="#0aa89d"/>

  <!-- friendly smile -->
  <path d="M357 368 C382 393 430 393 455 368" class="smile"/>
</g>

<text x="75" y="790" class="label">V2 closer to original: elongated body, longer arms, relaxed eyes, friendly smile</text>

<!-- DARK ICON -->
<g transform="translate(760 105)" filter="url(#shadow)">
  <rect x="0" y="0" width="160" height="160" rx="34" fill="#101820"/>
  <ellipse cx="80" cy="87" rx="64" ry="65" fill="#12262c"/>
  <g transform="translate(8 6) scale(.90)">
    <path d="M80 35 C111 35 132 58 128 94 C126 111 120 127 125 142 C130 155 111 158 106 145 C101 131 105 115 114 101" stroke="url(#tealFlat)" stroke-width="17" stroke-linecap="round"/>
    <path d="M80 35 C49 35 28 58 32 94 C34 111 40 127 35 142 C30 155 49 158 54 145 C59 131 55 115 46 101" stroke="url(#tealFlat)" stroke-width="17" stroke-linecap="round"/>
    <path d="M55 101 C35 113 25 130 22 149" stroke="url(#tealFlat)" stroke-width="15" stroke-linecap="round"/>
    <path d="M105 101 C125 113 135 130 138 149" stroke="url(#tealFlat)" stroke-width="15" stroke-linecap="round"/>
    <ellipse cx="80" cy="70" rx="48" ry="55" fill="url(#tealFlat)"/>
    <path d="M40 58 C45 32 60 20 80 20 C100 20 115 32 120 58 C95 67 65 67 40 58Z" fill="url(#hat)"/>
    <path d="M38 55 C63 64 97 64 122 55 C127 54 131 58 130 63 L129 70 C128 76 121 77 117 74 C92 80 68 80 43 74 C38 77 32 76 31 70 L30 63 C29 58 33 54 38 55Z" fill="url(#hatBand)"/>
    <rect x="53" y="72" width="28" height="18" rx="8" fill="#fbfaf3"/>
    <rect x="88" y="72" width="28" height="18" rx="8" fill="#fbfaf3"/>
    <circle cx="67" cy="80" r="7" fill="#29305e"/>
    <circle cx="102" cy="80" r="7" fill="#29305e"/>
    <rect x="51" y="69" width="31" height="9" rx="4.5" fill="#0aa89d"/>
    <rect x="86" y="69" width="31" height="9" rx="4.5" fill="#0aa89d"/>
    <path d="M64 101 C73 110 88 110 97 101" stroke="#06121b" stroke-width="5" stroke-linecap="round"/>
  </g>
</g>
<text x="753" y="300" class="label">Dark app icon</text>

<!-- LIGHT ICON -->
<g transform="translate(980 105)" filter="url(#shadow)">
  <rect x="0" y="0" width="160" height="160" rx="34" fill="#fbf7ef"/>
  <g transform="translate(8 6) scale(.90)">
    <path d="M80 35 C111 35 132 58 128 94 C126 111 120 127 125 142 C130 155 111 158 106 145 C101 131 105 115 114 101" stroke="url(#tealFlat)" stroke-width="17" stroke-linecap="round"/>
    <path d="M80 35 C49 35 28 58 32 94 C34 111 40 127 35 142 C30 155 49 158 54 145 C59 131 55 115 46 101" stroke="url(#tealFlat)" stroke-width="17" stroke-linecap="round"/>
    <path d="M55 101 C35 113 25 130 22 149" stroke="url(#tealFlat)" stroke-width="15" stroke-linecap="round"/>
    <path d="M105 101 C125 113 135 130 138 149" stroke="url(#tealFlat)" stroke-width="15" stroke-linecap="round"/>
    <ellipse cx="80" cy="70" rx="48" ry="55" fill="url(#tealFlat)"/>
    <path d="M40 58 C45 32 60 20 80 20 C100 20 115 32 120 58 C95 67 65 67 40 58Z" fill="url(#hat)"/>
    <path d="M38 55 C63 64 97 64 122 55 C127 54 131 58 130 63 L129 70 C128 76 121 77 117 74 C92 80 68 80 43 74 C38 77 32 76 31 70 L30 63 C29 58 33 54 38 55Z" fill="url(#hatBand)"/>
    <rect x="53" y="72" width="28" height="18" rx="8" fill="#fbfaf3"/>
    <rect x="88" y="72" width="28" height="18" rx="8" fill="#fbfaf3"/>
    <circle cx="67" cy="80" r="7" fill="#29305e"/>
    <circle cx="102" cy="80" r="7" fill="#29305e"/>
    <rect x="51" y="69" width="31" height="9" rx="4.5" fill="#0aa89d"/>
    <rect x="86" y="69" width="31" height="9" rx="4.5" fill="#0aa89d"/>
    <path d="M64 101 C73 110 88 110 97 101" stroke="#06121b" stroke-width="5" stroke-linecap="round"/>
  </g>
</g>
<text x="973" y="300" class="label">Light app icon</text>

<!-- LOGO MARK -->
<g transform="translate(760 385)" filter="url(#shadow)">
  <circle cx="80" cy="80" r="80" fill="#00a99b"/>
  <ellipse cx="80" cy="60" rx="40" ry="46" fill="#fbf7ef"/>
  <path d="M50 83 C62 96 68 114 61 135" stroke="#fbf7ef" stroke-width="14" stroke-linecap="round"/>
  <path d="M80 94 C76 112 76 129 81 143" stroke="#fbf7ef" stroke-width="14" stroke-linecap="round"/>
  <path d="M110 83 C98 96 92 114 99 135" stroke="#fbf7ef" stroke-width="14" stroke-linecap="round"/>
  <path d="M49 95 C37 101 30 112 27 127" stroke="#fbf7ef" stroke-width="14" stroke-linecap="round"/>
  <path d="M111 95 C123 101 130 112 133 127" stroke="#fbf7ef" stroke-width="14" stroke-linecap="round"/>
</g>
<text x="755" y="575" class="label">Simple logo mark</text>

<!-- FLAT AVATAR -->
<g transform="translate(990 385)" filter="url(#shadow)">
  <path d="M80 34 C112 34 133 58 129 94 C127 113 122 128 126 143 C130 156 111 159 106 145 C102 132 105 114 113 101" stroke="url(#tealFlat)" stroke-width="17" stroke-linecap="round"/>
  <path d="M80 34 C48 34 27 58 31 94 C33 113 38 128 34 143 C30 156 49 159 54 145 C58 132 55 114 47 101" stroke="url(#tealFlat)" stroke-width="17" stroke-linecap="round"/>
  <path d="M55 101 C36 113 25 131 22 149" stroke="url(#tealFlat)" stroke-width="15" stroke-linecap="round"/>
  <path d="M105 101 C124 113 135 131 138 149" stroke="url(#tealFlat)" stroke-width="15" stroke-linecap="round"/>
  <ellipse cx="80" cy="69" rx="49" ry="55" fill="url(#tealFlat)"/>
  <rect x="52" y="72" width="28" height="18" rx="8" fill="#fbfaf3"/>
  <rect x="88" y="72" width="28" height="18" rx="8" fill="#fbfaf3"/>
  <circle cx="66" cy="80" r="7" fill="#29305e"/>
  <circle cx="102" cy="80" r="7" fill="#29305e"/>
  <rect x="50" y="69" width="31" height="9" rx="4.5" fill="#0aa89d"/>
  <rect x="86" y="69" width="31" height="9" rx="4.5" fill="#0aa89d"/>
  <path d="M64 101 C73 110 88 110 97 101" stroke="#06121b" stroke-width="5" stroke-linecap="round"/>
</g>
<text x="985" y="575" class="label">Flat avatar</text>
</svg>