<?xml version="1.0" encoding="UTF-8"?>
<svg xmlns="http://www.w3.org/2000/svg" width="3072" height="2048" viewBox="0 0 3072 2048">
  <defs>
    <style>
      text { font-family: Inter, "Segoe UI", Arial, Helvetica, sans-serif; letter-spacing: 0; }
    </style>
    <pattern id="paper" patternUnits="userSpaceOnUse" width="96" height="96">
      <rect width="96" height="96" fill="#fbf8ef"/>
      <path d="M0 42 C20 38 43 44 64 40 S93 38 96 43" fill="none" stroke="#e7dfcf" stroke-width="1" opacity="0.33"/>
      <path d="M16 0 C18 26 14 54 19 96" fill="none" stroke="#eee6d7" stroke-width="1" opacity="0.36"/>
    </pattern>
    <filter id="softShadow" x="-10%" y="-10%" width="120%" height="125%">
      <feDropShadow dx="0" dy="4" stdDeviation="3" flood-color="#06274d" flood-opacity="0.10"/>
    </filter>
    <marker id="arrowBlue" markerWidth="16" markerHeight="16" refX="14" refY="8" orient="auto" markerUnits="strokeWidth">
      <path d="M2,2 L14,8 L2,14 Z" fill="#0b56b3"/>
    </marker>
    <marker id="arrowTeal" markerWidth="16" markerHeight="16" refX="14" refY="8" orient="auto" markerUnits="strokeWidth">
      <path d="M2,2 L14,8 L2,14 Z" fill="#087579"/>
    </marker>
    <marker id="arrowGreen" markerWidth="16" markerHeight="16" refX="14" refY="8" orient="auto" markerUnits="strokeWidth">
      <path d="M2,2 L14,8 L2,14 Z" fill="#0f7a43"/>
    </marker>
    <marker id="arrowPurple" markerWidth="16" markerHeight="16" refX="14" refY="8" orient="auto" markerUnits="strokeWidth">
      <path d="M2,2 L14,8 L2,14 Z" fill="#6f2dbd"/>
    </marker>
    <marker id="arrowOrange" markerWidth="16" markerHeight="16" refX="14" refY="8" orient="auto" markerUnits="strokeWidth">
      <path d="M2,2 L14,8 L2,14 Z" fill="#e86c00"/>
    </marker>
    <marker id="arrowRed" markerWidth="16" markerHeight="16" refX="14" refY="8" orient="auto" markerUnits="strokeWidth">
      <path d="M2,2 L14,8 L2,14 Z" fill="#d7261f"/>
    </marker>
  </defs>

  <rect width="3072" height="2048" fill="url(#paper)"/>
  <rect x="4" y="4" width="3064" height="2040" rx="24" fill="none" stroke="#05234d" stroke-width="4" opacity="1"/>

  <text x="1536" y="78" text-anchor="middle" font-size="66" font-weight="900" fill="#05234d" style=""><tspan x="1536" dy="0">Mentomate Testing + CI Pipeline</tspan></text>
  <text x="1536" y="126" text-anchor="middle" font-size="28" font-weight="650" fill="#5c6676" style="font-style:italic;"><tspan x="1536" dy="0">Local verification, GitHub Actions gates, E2E scope, mobile builds, deploy safety, and feedback loops</tspan></text>
  <line x1="28" y1="160" x2="3044" y2="160" stroke="#05234d" stroke-width="3"/>

  <line x1="28" y1="180" x2="3044" y2="180" stroke="#b7c1cf" stroke-width="2"/>
<rect x="28" y="180" width="282" height="300" fill="#fbf8ef" opacity="0.84"/>
<circle cx="66" cy="228" r="25" fill="#087579"/>
<text x="66" y="238" text-anchor="middle" font-size="27" font-weight="900" fill="#ffffff" style=""><tspan x="66" dy="0">1</tspan></text>
<text x="108" y="222" text-anchor="start" font-size="24" font-weight="900" fill="#05234d" style=""><tspan x="108" dy="0">Change + Local</tspan></text>
<text x="54" y="308" text-anchor="start" font-size="20" font-weight="500" fill="#1f2a3d" style=""><tspan x="54" dy="0">Smallest useful checks</tspan><tspan x="54" dy="27">before PR: targeted Jest,</tspan><tspan x="54" dy="27">area lint, typecheck, and</tspan><tspan x="54" dy="27">integration only when</tspan><tspan x="54" dy="27">behavior crosses package</tspan><tspan x="54" dy="27">or DB boundaries.</tspan></text>
<line x1="320" y1="180" x2="320" y2="480" stroke="#5f94b2" stroke-width="2"/>
  <line x1="28" y1="480" x2="3044" y2="480" stroke="#b7c1cf" stroke-width="2"/>
<rect x="28" y="480" width="282" height="430" fill="#fbf8ef" opacity="0.84"/>
<circle cx="66" cy="528" r="25" fill="#0b56b3"/>
<text x="66" y="538" text-anchor="middle" font-size="27" font-weight="900" fill="#ffffff" style=""><tspan x="66" dy="0">2</tspan></text>
<text x="108" y="522" text-anchor="start" font-size="24" font-weight="900" fill="#05234d" style=""><tspan x="108" dy="0">Primary CI Gate</tspan></text>
<text x="54" y="608" text-anchor="start" font-size="20" font-weight="500" fill="#1f2a3d" style=""><tspan x="54" dy="0">The required PR/main</tspan><tspan x="54" dy="27">workflow validates</tspan><tspan x="54" dy="27">install, database</tspan><tspan x="54" dy="27">migrations, workspace</tspan><tspan x="54" dy="27">lint, unit tests,</tspan><tspan x="54" dy="27">typecheck, and builds.</tspan></text>
<line x1="320" y1="480" x2="320" y2="910" stroke="#5f94b2" stroke-width="2"/>
  <line x1="28" y1="910" x2="3044" y2="910" stroke="#b7c1cf" stroke-width="2"/>
<rect x="28" y="910" width="282" height="420" fill="#fbf8ef" opacity="0.84"/>
<circle cx="66" cy="958" r="25" fill="#6f2dbd"/>
<text x="66" y="968" text-anchor="middle" font-size="27" font-weight="900" fill="#ffffff" style=""><tspan x="66" dy="0">3</tspan></text>
<text x="108" y="952" text-anchor="start" font-size="24" font-weight="900" fill="#05234d" style=""><tspan x="108" dy="0">E2E + Scope</tspan></text>
<text x="54" y="1038" text-anchor="start" font-size="20" font-weight="500" fill="#1f2a3d" style=""><tspan x="54" dy="0">Expensive suites are</tspan><tspan x="54" dy="27">routed by trigger and</tspan><tspan x="54" dy="27">changed files: Playwright</tspan><tspan x="54" dy="27">web smoke, API</tspan><tspan x="54" dy="27">integration, and Maestro</tspan><tspan x="54" dy="27">mobile flows.</tspan></text>
<line x1="320" y1="910" x2="320" y2="1330" stroke="#5f94b2" stroke-width="2"/>
  <line x1="28" y1="1330" x2="3044" y2="1330" stroke="#b7c1cf" stroke-width="2"/>
<rect x="28" y="1330" width="282" height="360" fill="#fbf8ef" opacity="0.84"/>
<circle cx="66" cy="1378" r="25" fill="#e86c00"/>
<text x="66" y="1388" text-anchor="middle" font-size="27" font-weight="900" fill="#ffffff" style=""><tspan x="66" dy="0">4</tspan></text>
<text x="108" y="1372" text-anchor="start" font-size="24" font-weight="900" fill="#05234d" style=""><tspan x="108" dy="0">Build + Deploy</tspan></text>
<text x="54" y="1458" text-anchor="start" font-size="20" font-weight="500" fill="#1f2a3d" style=""><tspan x="54" dy="0">After quality gates,</tspan><tspan x="54" dy="27">JS-only mobile changes go</tspan><tspan x="54" dy="27">OTA; native changes build</tspan><tspan x="54" dy="27">with EAS; API deploys run</tspan><tspan x="54" dy="27">migration safeguards</tspan><tspan x="54" dy="27">first.</tspan></text>
<line x1="320" y1="1330" x2="320" y2="1690" stroke="#5f94b2" stroke-width="2"/>
  <line x1="28" y1="1690" x2="3044" y2="1690" stroke="#b7c1cf" stroke-width="2"/>
<rect x="28" y="1690" width="282" height="198" fill="#fbf8ef" opacity="0.84"/>
<circle cx="66" cy="1738" r="25" fill="#0f7a43"/>
<text x="66" y="1748" text-anchor="middle" font-size="27" font-weight="900" fill="#ffffff" style=""><tspan x="66" dy="0">5</tspan></text>
<text x="108" y="1732" text-anchor="start" font-size="24" font-weight="900" fill="#05234d" style=""><tspan x="108" dy="0">Feedback +</tspan><tspan x="108" dy="31">Guardrails</tspan></text>
<text x="54" y="1818" text-anchor="start" font-size="20" font-weight="500" fill="#1f2a3d" style=""><tspan x="54" dy="0">Artifacts, automation,</tspan><tspan x="54" dy="27">and repo rules close the</tspan><tspan x="54" dy="27">loop.</tspan></text>
<line x1="320" y1="1690" x2="320" y2="1888" stroke="#5f94b2" stroke-width="2"/>

  <rect x="365" y="204" width="345" height="238" rx="12" fill="#eaf8f7" stroke="#087579" stroke-width="3" opacity="1"/>
<circle cx="399" cy="240" r="20" fill="#087579"/>
<text x="399" y="249" text-anchor="middle" font-size="22" font-weight="900" fill="#fff" style=""><tspan x="399" dy="0">1</tspan></text>
<text x="431" y="237" text-anchor="start" font-size="23" font-weight="900" fill="#087579" style=""><tspan x="431" dy="0">Developer change</tspan></text>
<text x="393" y="282" text-anchor="start" font-size="18" font-weight="520" fill="#1f2a3d" style=""><tspan x="393" dy="0">Code, schema, workflow, or test</tspan><tspan x="393" dy="23">updates. Docs-only changes are</tspan><tspan x="393" dy="23">ignored by the main CI path</tspan><tspan x="393" dy="23">filters.</tspan></text>
  <rect x="750" y="204" width="520" height="238" rx="12" fill="#eaf8f7" stroke="#087579" stroke-width="3" opacity="1"/>
<circle cx="784" cy="240" r="20" fill="#087579"/>
<text x="784" y="249" text-anchor="middle" font-size="22" font-weight="900" fill="#fff" style=""><tspan x="784" dy="0">2</tspan></text>
<text x="816" y="237" text-anchor="start" font-size="23" font-weight="900" fill="#087579" style=""><tspan x="816" dy="0">Local validation menu</tspan></text>
<text x="778" y="282" text-anchor="start" font-size="18" font-weight="520" fill="#1f2a3d" style=""><tspan x="778" dy="0">Targeted: pnpm exec jest --findRelatedTests</tspan><tspan x="778" dy="23">&lt;changed-files&gt; --no-coverage. API: nx run</tspan><tspan x="778" dy="23">api:lint/typecheck. Mobile: nx lint mobile + tsc</tspan><tspan x="778" dy="23">--noEmit. Integration tests when DB, auth,</tspan><tspan x="778" dy="23">scoping, Inngest, or contracts change.</tspan></text>
  <rect x="1310" y="204" width="360" height="238" rx="12" fill="#eef6ff" stroke="#0b56b3" stroke-width="3" opacity="1"/>
<circle cx="1344" cy="240" r="20" fill="#0b56b3"/>
<text x="1344" y="249" text-anchor="middle" font-size="22" font-weight="900" fill="#fff" style=""><tspan x="1344" dy="0">3</tspan></text>
<text x="1376" y="237" text-anchor="start" font-size="23" font-weight="900" fill="#0b56b3" style=""><tspan x="1376" dy="0">PR / push trigger</tspan></text>
<text x="1338" y="282" text-anchor="start" font-size="18" font-weight="520" fill="#1f2a3d" style=""><tspan x="1338" dy="0">GitHub Actions starts on</tspan><tspan x="1338" dy="23">pull_request and push to main. PR</tspan><tspan x="1338" dy="23">concurrency cancels superseded</tspan><tspan x="1338" dy="23">runs; main commits queue.</tspan></text>
  <rect x="1710" y="204" width="340" height="238" rx="12" fill="#f5efff" stroke="#6f2dbd" stroke-width="3" opacity="1"/>
<circle cx="1744" cy="240" r="20" fill="#6f2dbd"/>
<text x="1744" y="249" text-anchor="middle" font-size="22" font-weight="900" fill="#fff" style=""><tspan x="1744" dy="0">4</tspan></text>
<text x="1776" y="237" text-anchor="start" font-size="23" font-weight="900" fill="#6f2dbd" style=""><tspan x="1776" dy="0">PR automation</tspan></text>
<text x="1738" y="282" text-anchor="start" font-size="18" font-weight="520" fill="#1f2a3d" style=""><tspan x="1738" dy="0">Claude Code Review is advisory</tspan><tspan x="1738" dy="23">and posts PR feedback. @claude</tspan><tspan x="1738" dy="23">comment workflow can inspect CI</tspan><tspan x="1738" dy="23">and repository context.</tspan></text>
  <rect x="2090" y="204" width="520" height="238" rx="12" fill="#fff1f0" stroke="#d7261f" stroke-width="3" opacity="1"/>
<circle cx="2124" cy="240" r="20" fill="#d7261f"/>
<text x="2124" y="249" text-anchor="middle" font-size="22" font-weight="900" fill="#fff" style=""><tspan x="2124" dy="0">5</tspan></text>
<text x="2156" y="237" text-anchor="start" font-size="23" font-weight="900" fill="#d7261f" style=""><tspan x="2156" dy="0">Review protocol</tspan></text>
<text x="2118" y="282" text-anchor="start" font-size="18" font-weight="520" fill="#1f2a3d" style=""><tspan x="2118" dy="0">Before merge: read gh pr diff, check gh pr</tspan><tspan x="2118" dy="23">checks, triage automated review comments, and fix</tspan><tspan x="2118" dy="23">high correctness/security findings.</tspan></text>

  <line x1="710" y1="323" x2="750" y2="323" stroke="#087579" stroke-width="4" marker-end="url(#arrowTeal)"/>
  <line x1="1270" y1="323" x2="1310" y2="323" stroke="#0b56b3" stroke-width="4" marker-end="url(#arrowBlue)"/>
  <line x1="1670" y1="323" x2="1710" y2="323" stroke="#6f2dbd" stroke-width="4" marker-end="url(#arrowPurple)"/>
  <line x1="2050" y1="323" x2="2090" y2="323" stroke="#d7261f" stroke-width="4" marker-end="url(#arrowRed)"/>

  <rect x="365" y="512" width="420" height="350" rx="14" fill="#eef6ff" stroke="#0b56b3" stroke-width="3.2" opacity="1" filter="url(#softShadow)"/>
<rect x="367" y="514" width="416" height="52" rx="12" fill="#ffffff" opacity="0.88"/>
<text x="387" y="546" text-anchor="start" font-size="24" font-weight="800" fill="#0b56b3" style=""><tspan x="387" dy="0">ci.yml trigger + setup</tspan></text>
<text x="387" y="578" text-anchor="start" font-size="16" font-weight="600" fill="#5c6676" style="font-style:italic;"><tspan x="387" dy="0">pull_request + push main</tspan></text>
<circle cx="389" cy="609" r="4.6" fill="#0b56b3"/>
<text x="406" y="616" text-anchor="start" font-size="18" font-weight="500" fill="#1f2a3d" style=""><tspan x="406" dy="0">paths-ignore skips docs, markdown, IDE</tspan><tspan x="406" dy="23">and agent metadata</tspan></text>
<circle cx="389" cy="662" r="4.6" fill="#0b56b3"/>
<text x="406" y="669" text-anchor="start" font-size="18" font-weight="500" fill="#1f2a3d" style=""><tspan x="406" dy="0">checkout with base branch for PR diff</tspan><tspan x="406" dy="23">scripts</tspan></text>
<circle cx="389" cy="715" r="4.6" fill="#0b56b3"/>
<text x="406" y="722" text-anchor="start" font-size="18" font-weight="500" fill="#1f2a3d" style=""><tspan x="406" dy="0">pnpm/action-setup + Node 22 + pnpm cache</tspan></text>
<circle cx="389" cy="745" r="4.6" fill="#0b56b3"/>
<text x="406" y="752" text-anchor="start" font-size="18" font-weight="500" fill="#1f2a3d" style=""><tspan x="406" dy="0">Nx daemon disabled for deterministic CI</tspan></text>
  <rect x="825" y="512" width="430" height="350" rx="14" fill="#edf8f1" stroke="#0f7a43" stroke-width="3.2" opacity="1" filter="url(#softShadow)"/>
<rect x="827" y="514" width="426" height="52" rx="12" fill="#ffffff" opacity="0.88"/>
<text x="847" y="546" text-anchor="start" font-size="24" font-weight="800" fill="#0f7a43" style=""><tspan x="847" dy="0">CI database lane</tspan></text>
<text x="847" y="578" text-anchor="start" font-size="16" font-weight="600" fill="#5c6676" style="font-style:italic;"><tspan x="847" dy="0">pgvector PostgreSQL service</tspan></text>
<circle cx="849" cy="609" r="4.6" fill="#0f7a43"/>
<text x="866" y="616" text-anchor="start" font-size="18" font-weight="500" fill="#1f2a3d" style=""><tspan x="866" dy="0">DATABASE_URL points at local CI Postgres</tspan></text>
<circle cx="849" cy="639" r="4.6" fill="#0f7a43"/>
<text x="866" y="646" text-anchor="start" font-size="18" font-weight="500" fill="#1f2a3d" style=""><tspan x="866" dy="0">CREATE EXTENSION IF NOT EXISTS vector</tspan></text>
<circle cx="849" cy="669" r="4.6" fill="#0f7a43"/>
<text x="866" y="676" text-anchor="start" font-size="18" font-weight="500" fill="#1f2a3d" style=""><tspan x="866" dy="0">drizzle-kit migrate validates committed</tspan><tspan x="866" dy="23">SQL</tspan></text>
<circle cx="849" cy="722" r="4.6" fill="#0f7a43"/>
<text x="866" y="729" text-anchor="start" font-size="18" font-weight="500" fill="#1f2a3d" style=""><tspan x="866" dy="0">Clean stale tsbuildinfo and dist outputs</tspan></text>
  <rect x="1295" y="512" width="520" height="350" rx="14" fill="#eef6ff" stroke="#0b56b3" stroke-width="3.2" opacity="1" filter="url(#softShadow)"/>
<rect x="1297" y="514" width="516" height="52" rx="12" fill="#ffffff" opacity="0.88"/>
<text x="1317" y="546" text-anchor="start" font-size="24" font-weight="800" fill="#0b56b3" style=""><tspan x="1317" dy="0">Workspace quality gate</tspan></text>
<text x="1317" y="578" text-anchor="start" font-size="16" font-weight="600" fill="#5c6676" style="font-style:italic;"><tspan x="1317" dy="0">required main job</tspan></text>
<circle cx="1319" cy="609" r="4.6" fill="#0b56b3"/>
<text x="1336" y="616" text-anchor="start" font-size="18" font-weight="500" fill="#1f2a3d" style=""><tspan x="1336" dy="0">pnpm exec nx run-many -t lint test typecheck</tspan></text>
<circle cx="1319" cy="639" r="4.6" fill="#0b56b3"/>
<text x="1336" y="646" text-anchor="start" font-size="18" font-weight="500" fill="#1f2a3d" style=""><tspan x="1336" dy="0">pnpm exec nx run-many -t build</tspan><tspan x="1336" dy="23">--exclude=@eduagent/mobile</tspan></text>
<circle cx="1319" cy="692" r="4.6" fill="#0b56b3"/>
<text x="1336" y="699" text-anchor="start" font-size="18" font-weight="500" fill="#1f2a3d" style=""><tspan x="1336" dy="0">API integration tests run when</tspan><tspan x="1336" dy="23">API/database/schemas/retention/lockfile changed</tspan></text>
<circle cx="1319" cy="745" r="4.6" fill="#0b56b3"/>
<text x="1336" y="752" text-anchor="start" font-size="18" font-weight="500" fill="#1f2a3d" style=""><tspan x="1336" dy="0">Self-healing CI logs fix proposals on failure</tspan></text>
  <rect x="1855" y="512" width="430" height="350" rx="14" fill="#eaf8f7" stroke="#087579" stroke-width="3.2" opacity="1" filter="url(#softShadow)"/>
<rect x="1857" y="514" width="426" height="52" rx="12" fill="#ffffff" opacity="0.88"/>
<text x="1877" y="546" text-anchor="start" font-size="24" font-weight="800" fill="#087579" style=""><tspan x="1877" dy="0">Unit test surface</tspan></text>
<text x="1877" y="578" text-anchor="start" font-size="16" font-weight="600" fill="#5c6676" style="font-style:italic;"><tspan x="1877" dy="0">Jest through Nx targets</tspan></text>
<circle cx="1879" cy="609" r="4.6" fill="#087579"/>
<text x="1896" y="616" text-anchor="start" font-size="18" font-weight="500" fill="#1f2a3d" style=""><tspan x="1896" dy="0">Mobile: ~194 suites / ~2,150 tests</tspan></text>
<circle cx="1879" cy="639" r="4.6" fill="#087579"/>
<text x="1896" y="646" text-anchor="start" font-size="18" font-weight="500" fill="#1f2a3d" style=""><tspan x="1896" dy="0">API: ~187 suites / ~3,220 tests</tspan></text>
<circle cx="1879" cy="669" r="4.6" fill="#087579"/>
<text x="1896" y="676" text-anchor="start" font-size="18" font-weight="500" fill="#1f2a3d" style=""><tspan x="1896" dy="0">Co-located tests; no __tests__ folders</tspan></text>
<circle cx="1879" cy="699" r="4.6" fill="#087579"/>
<text x="1896" y="706" text-anchor="start" font-size="18" font-weight="500" fill="#1f2a3d" style=""><tspan x="1896" dy="0">Shared schemas stay in @eduagent/schemas</tspan></text>
  <rect x="2325" y="512" width="430" height="350" rx="14" fill="#fff3e6" stroke="#e86c00" stroke-width="3.2" opacity="1" filter="url(#softShadow)"/>
<rect x="2327" y="514" width="426" height="52" rx="12" fill="#ffffff" opacity="0.88"/>
<text x="2347" y="546" text-anchor="start" font-size="24" font-weight="800" fill="#e86c00" style=""><tspan x="2347" dy="0">CI outputs</tspan></text>
<text x="2347" y="578" text-anchor="start" font-size="16" font-weight="600" fill="#5c6676" style="font-style:italic;"><tspan x="2347" dy="0">pass, fail, or advisory signal</tspan></text>
<circle cx="2349" cy="609" r="4.6" fill="#e86c00"/>
<text x="2366" y="616" text-anchor="start" font-size="18" font-weight="500" fill="#1f2a3d" style=""><tspan x="2366" dy="0">Required checks gate PR merge policy</tspan></text>
<circle cx="2349" cy="639" r="4.6" fill="#e86c00"/>
<text x="2366" y="646" text-anchor="start" font-size="18" font-weight="500" fill="#1f2a3d" style=""><tspan x="2366" dy="0">Validate CLAUDE.md counts is advisory</tspan></text>
<circle cx="2349" cy="669" r="4.6" fill="#e86c00"/>
<text x="2366" y="676" text-anchor="start" font-size="18" font-weight="500" fill="#1f2a3d" style=""><tspan x="2366" dy="0">Nx Cloud hooks are present for future</tspan><tspan x="2366" dy="23">distribution</tspan></text>
<circle cx="2349" cy="722" r="4.6" fill="#e86c00"/>
<text x="2366" y="729" text-anchor="start" font-size="18" font-weight="500" fill="#1f2a3d" style=""><tspan x="2366" dy="0">Failed checks feed reviewer and fix</tspan><tspan x="2366" dy="23">workflow</tspan></text>

  <line x1="785" y1="687" x2="825" y2="687" stroke="#0f7a43" stroke-width="4" marker-end="url(#arrowGreen)"/>
  <line x1="1255" y1="687" x2="1295" y2="687" stroke="#0b56b3" stroke-width="4" marker-end="url(#arrowBlue)"/>
  <line x1="1815" y1="687" x2="1855" y2="687" stroke="#087579" stroke-width="4" marker-end="url(#arrowTeal)"/>
  <line x1="2285" y1="687" x2="2325" y2="687" stroke="#e86c00" stroke-width="4" marker-end="url(#arrowOrange)"/>
  <line x1="1515" y1="862" x2="1515" y2="940" stroke="#6f2dbd" stroke-width="4" stroke-dasharray="10 8" marker-end="url(#arrowPurple)"/>

  <rect x="365" y="950" width="440" height="318" rx="14" fill="#f5efff" stroke="#6f2dbd" stroke-width="3.2" opacity="1" filter="url(#softShadow)"/>
<rect x="367" y="952" width="436" height="52" rx="12" fill="#ffffff" opacity="0.88"/>
<text x="387" y="984" text-anchor="start" font-size="24" font-weight="800" fill="#6f2dbd" style=""><tspan x="387" dy="0">e2e-web.yml</tspan></text>
<text x="387" y="1016" text-anchor="start" font-size="16" font-weight="600" fill="#5c6676" style="font-style:italic;"><tspan x="387" dy="0">PR to main/develop/improvements + manual</tspan></text>
<circle cx="389" cy="1047" r="4.6" fill="#6f2dbd"/>
<text x="406" y="1054" text-anchor="start" font-size="18" font-weight="500" fill="#1f2a3d" style=""><tspan x="406" dy="0">Installs Playwright Chromium</tspan></text>
<circle cx="389" cy="1077" r="4.6" fill="#6f2dbd"/>
<text x="406" y="1084" text-anchor="start" font-size="18" font-weight="500" fill="#1f2a3d" style=""><tspan x="406" dy="0">Builds schemas package</tspan></text>
<circle cx="389" cy="1107" r="4.6" fill="#6f2dbd"/>
<text x="406" y="1114" text-anchor="start" font-size="18" font-weight="500" fill="#1f2a3d" style=""><tspan x="406" dy="0">Runs pnpm run test:e2e:web:smoke</tspan></text>
<circle cx="389" cy="1137" r="4.6" fill="#6f2dbd"/>
<text x="406" y="1144" text-anchor="start" font-size="18" font-weight="500" fill="#1f2a3d" style=""><tspan x="406" dy="0">Uploads Playwright report and</tspan><tspan x="406" dy="23">test-results</tspan></text>
  <rect x="845" y="950" width="460" height="318" rx="14" fill="#f5efff" stroke="#6f2dbd" stroke-width="3.2" opacity="1" filter="url(#softShadow)"/>
<rect x="847" y="952" width="456" height="52" rx="12" fill="#ffffff" opacity="0.88"/>
<text x="867" y="984" text-anchor="start" font-size="24" font-weight="800" fill="#6f2dbd" style=""><tspan x="867" dy="0">e2e-ci.yml scope gate</tspan></text>
<text x="867" y="1016" text-anchor="start" font-size="16" font-weight="600" fill="#5c6676" style="font-style:italic;"><tspan x="867" dy="0">workflow_run after CI + nightly + manual</tspan></text>
<circle cx="869" cy="1047" r="4.6" fill="#6f2dbd"/>
<text x="886" y="1054" text-anchor="start" font-size="18" font-weight="500" fill="#1f2a3d" style=""><tspan x="886" dy="0">Skips if upstream CI failed</tspan></text>
<circle cx="869" cy="1077" r="4.6" fill="#6f2dbd"/>
<text x="886" y="1084" text-anchor="start" font-size="18" font-weight="500" fill="#1f2a3d" style=""><tspan x="886" dy="0">Changed-file analysis chooses API and</tspan><tspan x="886" dy="23">mobile suites</tspan></text>
<circle cx="869" cy="1130" r="4.6" fill="#6f2dbd"/>
<text x="886" y="1137" text-anchor="start" font-size="18" font-weight="500" fill="#1f2a3d" style=""><tspan x="886" dy="0">Schedule/dispatch runs all E2E scopes</tspan></text>
<circle cx="869" cy="1160" r="4.6" fill="#6f2dbd"/>
<text x="886" y="1167" text-anchor="start" font-size="18" font-weight="500" fill="#1f2a3d" style=""><tspan x="886" dy="0">Concurrency cancels stale branch E2E runs</tspan></text>
  <rect x="1345" y="950" width="430" height="318" rx="14" fill="#edf8f1" stroke="#0f7a43" stroke-width="3.2" opacity="1" filter="url(#softShadow)"/>
<rect x="1347" y="952" width="426" height="52" rx="12" fill="#ffffff" opacity="0.88"/>
<text x="1367" y="984" text-anchor="start" font-size="24" font-weight="800" fill="#0f7a43" style=""><tspan x="1367" dy="0">API integration E2E</tspan></text>
<text x="1367" y="1016" text-anchor="start" font-size="16" font-weight="600" fill="#5c6676" style="font-style:italic;"><tspan x="1367" dy="0">scheduled/manual advisory</tspan></text>
<circle cx="1369" cy="1047" r="4.6" fill="#0f7a43"/>
<text x="1386" y="1054" text-anchor="start" font-size="18" font-weight="500" fill="#1f2a3d" style=""><tspan x="1386" dy="0">pgvector Postgres service</tspan></text>
<circle cx="1369" cy="1077" r="4.6" fill="#0f7a43"/>
<text x="1386" y="1084" text-anchor="start" font-size="18" font-weight="500" fill="#1f2a3d" style=""><tspan x="1386" dy="0">db:push in this suite only; migration</tspan><tspan x="1386" dy="23">SQL already validated in ci.yml</tspan></text>
<circle cx="1369" cy="1130" r="4.6" fill="#0f7a43"/>
<text x="1386" y="1137" text-anchor="start" font-size="18" font-weight="500" fill="#1f2a3d" style=""><tspan x="1386" dy="0">jest tests/integration with maxWorkers=2</tspan></text>
<circle cx="1369" cy="1160" r="4.6" fill="#0f7a43"/>
<text x="1386" y="1167" text-anchor="start" font-size="18" font-weight="500" fill="#1f2a3d" style=""><tspan x="1386" dy="0">continue-on-error does not block merge</tspan></text>
  <rect x="1815" y="950" width="575" height="318" rx="14" fill="#f5efff" stroke="#6f2dbd" stroke-width="3.2" opacity="1" filter="url(#softShadow)"/>
<rect x="1817" y="952" width="571" height="52" rx="12" fill="#ffffff" opacity="0.88"/>
<text x="1837" y="984" text-anchor="start" font-size="24" font-weight="800" fill="#6f2dbd" style=""><tspan x="1837" dy="0">Mobile Maestro E2E</tspan></text>
<text x="1837" y="1016" text-anchor="start" font-size="16" font-weight="600" fill="#5c6676" style="font-style:italic;"><tspan x="1837" dy="0">runtime mobile-affecting changes</tspan></text>
<circle cx="1839" cy="1047" r="4.6" fill="#6f2dbd"/>
<text x="1856" y="1054" text-anchor="start" font-size="18" font-weight="500" fill="#1f2a3d" style=""><tspan x="1856" dy="0">Builds schemas, writes apps/api/.dev.vars, starts</tspan><tspan x="1856" dy="23">wrangler dev</tspan></text>
<circle cx="1839" cy="1100" r="4.6" fill="#6f2dbd"/>
<text x="1856" y="1107" text-anchor="start" font-size="18" font-weight="500" fill="#1f2a3d" style=""><tspan x="1856" dy="0">Caches APK and Gradle; injects fresh JS on cache hit</tspan></text>
<circle cx="1839" cy="1130" r="4.6" fill="#6f2dbd"/>
<text x="1856" y="1137" text-anchor="start" font-size="18" font-weight="500" fill="#1f2a3d" style=""><tspan x="1856" dy="0">Runs Android emulator and Maestro smoke/nightly tags</tspan></text>
<circle cx="1839" cy="1160" r="4.6" fill="#6f2dbd"/>
<text x="1856" y="1167" text-anchor="start" font-size="18" font-weight="500" fill="#1f2a3d" style=""><tspan x="1856" dy="0">Uploads screenshots, failure screen, and logcat</tspan><tspan x="1856" dy="23">artifacts</tspan></text>
  <rect x="2430" y="950" width="325" height="318" rx="14" fill="#eaf8f7" stroke="#087579" stroke-width="3.2" opacity="1" filter="url(#softShadow)"/>
<rect x="2432" y="952" width="321" height="52" rx="12" fill="#ffffff" opacity="0.88"/>
<text x="2452" y="984" text-anchor="start" font-size="24" font-weight="800" fill="#087579" style=""><tspan x="2452" dy="0">Contract test surface</tspan></text>
<text x="2452" y="1016" text-anchor="start" font-size="16" font-weight="600" fill="#5c6676" style="font-style:italic;"><tspan x="2452" dy="0">tests/integration/</tspan></text>
<circle cx="2454" cy="1047" r="4.6" fill="#087579"/>
<text x="2471" y="1054" text-anchor="start" font-size="18" font-weight="500" fill="#1f2a3d" style=""><tspan x="2471" dy="0">~32 integration suites / ~290</tspan><tspan x="2471" dy="23">cases</tspan></text>
<circle cx="2454" cy="1100" r="4.6" fill="#087579"/>
<text x="2471" y="1107" text-anchor="start" font-size="18" font-weight="500" fill="#1f2a3d" style=""><tspan x="2471" dy="0">Use real database and service</tspan><tspan x="2471" dy="23">boundaries</tspan></text>
<circle cx="2454" cy="1153" r="4.6" fill="#087579"/>
<text x="2471" y="1160" text-anchor="start" font-size="18" font-weight="500" fill="#1f2a3d" style=""><tspan x="2471" dy="0">No internal mocks in</tspan><tspan x="2471" dy="23">integration tests</tspan></text>

  <line x1="805" y1="1109" x2="845" y2="1109" stroke="#6f2dbd" stroke-width="4" marker-end="url(#arrowPurple)"/>
  <line x1="1305" y1="1109" x2="1345" y2="1109" stroke="#0f7a43" stroke-width="4" stroke-dasharray="10 8" marker-end="url(#arrowGreen)"/>
  <line x1="1775" y1="1109" x2="1815" y2="1109" stroke="#6f2dbd" stroke-width="4" stroke-dasharray="10 8" marker-end="url(#arrowPurple)"/>
  <line x1="2390" y1="1109" x2="2430" y2="1109" stroke="#087579" stroke-width="4" stroke-dasharray="10 8" marker-end="url(#arrowTeal)"/>

  <rect x="365" y="1372" width="455" height="270" rx="14" fill="#fff3e6" stroke="#e86c00" stroke-width="3.2" opacity="1" filter="url(#softShadow)"/>
<rect x="367" y="1374" width="451" height="52" rx="12" fill="#ffffff" opacity="0.88"/>
<text x="387" y="1406" text-anchor="start" font-size="24" font-weight="800" fill="#e86c00" style=""><tspan x="387" dy="0">OTA update from ci.yml</tspan></text>
<text x="387" y="1438" text-anchor="start" font-size="16" font-weight="600" fill="#5c6676" style="font-style:italic;"><tspan x="387" dy="0">push main after CI main passes</tspan></text>
<circle cx="389" cy="1469" r="4.6" fill="#e86c00"/>
<text x="406" y="1476" text-anchor="start" font-size="18" font-weight="500" fill="#1f2a3d" style=""><tspan x="406" dy="0">Runs only when mobile or schemas changed</tspan></text>
<circle cx="389" cy="1499" r="4.6" fill="#e86c00"/>
<text x="406" y="1506" text-anchor="start" font-size="18" font-weight="500" fill="#1f2a3d" style=""><tspan x="406" dy="0">Skips if native files changed</tspan></text>
<circle cx="389" cy="1529" r="4.6" fill="#e86c00"/>
<text x="406" y="1536" text-anchor="start" font-size="18" font-weight="500" fill="#1f2a3d" style=""><tspan x="406" dy="0">Publishes EAS Update to preview channel</tspan></text>
<circle cx="389" cy="1559" r="4.6" fill="#e86c00"/>
<text x="406" y="1566" text-anchor="start" font-size="18" font-weight="500" fill="#1f2a3d" style=""><tspan x="406" dy="0">Warns that native changes need full EAS</tspan><tspan x="406" dy="23">build</tspan></text>
  <rect x="860" y="1372" width="455" height="270" rx="14" fill="#fff3e6" stroke="#e86c00" stroke-width="3.2" opacity="1" filter="url(#softShadow)"/>
<rect x="862" y="1374" width="451" height="52" rx="12" fill="#ffffff" opacity="0.88"/>
<text x="882" y="1406" text-anchor="start" font-size="24" font-weight="800" fill="#e86c00" style=""><tspan x="882" dy="0">mobile-ci.yml</tspan></text>
<text x="882" y="1438" text-anchor="start" font-size="16" font-weight="600" fill="#5c6676" style="font-style:italic;"><tspan x="882" dy="0">CI workflow_run success + dispatch</tspan></text>
<circle cx="884" cy="1469" r="4.6" fill="#e86c00"/>
<text x="901" y="1476" text-anchor="start" font-size="18" font-weight="500" fill="#1f2a3d" style=""><tspan x="901" dy="0">check-affected detects mobile and native</tspan><tspan x="901" dy="23">changes</tspan></text>
<circle cx="884" cy="1522" r="4.6" fill="#e86c00"/>
<text x="901" y="1529" text-anchor="start" font-size="18" font-weight="500" fill="#1f2a3d" style=""><tspan x="901" dy="0">Manual dispatch can lint/test and build</tspan><tspan x="901" dy="23">selected profile/platform</tspan></text>
<circle cx="884" cy="1575" r="4.6" fill="#e86c00"/>
<text x="901" y="1582" text-anchor="start" font-size="18" font-weight="500" fill="#1f2a3d" style=""><tspan x="901" dy="0">Native changes build Android preview APK</tspan></text>
<circle cx="884" cy="1605" r="4.6" fill="#e86c00"/>
<text x="901" y="1612" text-anchor="start" font-size="18" font-weight="500" fill="#1f2a3d" style=""><tspan x="901" dy="0">EAS profile controls dev/preview/prod</tspan></text>
  <rect x="1355" y="1372" width="525" height="270" rx="14" fill="#fff3e6" stroke="#e86c00" stroke-width="3.2" opacity="1" filter="url(#softShadow)"/>
<rect x="1357" y="1374" width="521" height="52" rx="12" fill="#ffffff" opacity="0.88"/>
<text x="1377" y="1406" text-anchor="start" font-size="24" font-weight="800" fill="#e86c00" style=""><tspan x="1377" dy="0">deploy.yml API quality gate</tspan></text>
<text x="1377" y="1438" text-anchor="start" font-size="16" font-weight="600" fill="#5c6676" style="font-style:italic;"><tspan x="1377" dy="0">push main + manual dispatch</tspan></text>
<circle cx="1379" cy="1469" r="4.6" fill="#e86c00"/>
<text x="1396" y="1476" text-anchor="start" font-size="18" font-weight="500" fill="#1f2a3d" style=""><tspan x="1396" dy="0">Push main: lightweight lint + typecheck because CI</tspan><tspan x="1396" dy="23">already ran PR suite</tspan></text>
<circle cx="1379" cy="1522" r="4.6" fill="#e86c00"/>
<text x="1396" y="1529" text-anchor="start" font-size="18" font-weight="500" fill="#1f2a3d" style=""><tspan x="1396" dy="0">Manual deploy: adds API unit and integration tests</tspan></text>
<circle cx="1379" cy="1552" r="4.6" fill="#e86c00"/>
<text x="1396" y="1559" text-anchor="start" font-size="18" font-weight="500" fill="#1f2a3d" style=""><tspan x="1396" dy="0">Quality gate always precedes API deploy</tspan></text>
<circle cx="1379" cy="1582" r="4.6" fill="#e86c00"/>
<text x="1396" y="1589" text-anchor="start" font-size="18" font-weight="500" fill="#1f2a3d" style=""><tspan x="1396" dy="0">Production uses GitHub environment approval</tspan></text>
  <rect x="1920" y="1372" width="435" height="270" rx="14" fill="#fff1f0" stroke="#d7261f" stroke-width="3.2" opacity="1" filter="url(#softShadow)"/>
<rect x="1922" y="1374" width="431" height="52" rx="12" fill="#ffffff" opacity="0.88"/>
<text x="1942" y="1406" text-anchor="start" font-size="24" font-weight="800" fill="#d7261f" style=""><tspan x="1942" dy="0">Migration + target safety</tspan></text>
<text x="1942" y="1438" text-anchor="start" font-size="16" font-weight="600" fill="#5c6676" style="font-style:italic;"><tspan x="1942" dy="0">before Cloudflare deploy</tspan></text>
<circle cx="1944" cy="1469" r="4.6" fill="#d7261f"/>
<text x="1961" y="1476" text-anchor="start" font-size="18" font-weight="500" fill="#1f2a3d" style=""><tspan x="1961" dy="0">Asserts the correct environment</tspan><tspan x="1961" dy="23">DATABASE_URL secret exists</tspan></text>
<circle cx="1944" cy="1522" r="4.6" fill="#d7261f"/>
<text x="1961" y="1529" text-anchor="start" font-size="18" font-weight="500" fill="#1f2a3d" style=""><tspan x="1961" dy="0">Verifies deploy target host before</tspan><tspan x="1961" dy="23">migrations</tspan></text>
<circle cx="1944" cy="1575" r="4.6" fill="#d7261f"/>
<text x="1961" y="1582" text-anchor="start" font-size="18" font-weight="500" fill="#1f2a3d" style=""><tspan x="1961" dy="0">Runs drizzle-kit migrate against selected</tspan><tspan x="1961" dy="23">target</tspan></text>
<circle cx="1944" cy="1628" r="4.6" fill="#d7261f"/>
<text x="1961" y="1635" text-anchor="start" font-size="18" font-weight="500" fill="#1f2a3d" style=""><tspan x="1961" dy="0">No db:push in staging/prod</tspan></text>
  <rect x="2395" y="1372" width="360" height="270" rx="14" fill="#fff3e6" stroke="#e86c00" stroke-width="3.2" opacity="1" filter="url(#softShadow)"/>
<rect x="2397" y="1374" width="356" height="52" rx="12" fill="#ffffff" opacity="0.88"/>
<text x="2417" y="1406" text-anchor="start" font-size="24" font-weight="800" fill="#e86c00" style=""><tspan x="2417" dy="0">Release endpoints</tspan></text>
<text x="2417" y="1438" text-anchor="start" font-size="16" font-weight="600" fill="#5c6676" style="font-style:italic;"><tspan x="2417" dy="0">post-gate delivery</tspan></text>
<circle cx="2419" cy="1469" r="4.6" fill="#e86c00"/>
<text x="2436" y="1476" text-anchor="start" font-size="18" font-weight="500" fill="#1f2a3d" style=""><tspan x="2436" dy="0">wrangler deploy --env</tspan><tspan x="2436" dy="23">staging/production</tspan></text>
<circle cx="2419" cy="1522" r="4.6" fill="#e86c00"/>
<text x="2436" y="1529" text-anchor="start" font-size="18" font-weight="500" fill="#1f2a3d" style=""><tspan x="2436" dy="0">Sync Worker secrets from Doppler</tspan><tspan x="2436" dy="23">when token is present</tspan></text>
<circle cx="2419" cy="1575" r="4.6" fill="#e86c00"/>
<text x="2436" y="1582" text-anchor="start" font-size="18" font-weight="500" fill="#1f2a3d" style=""><tspan x="2436" dy="0">Manual mobile deploy builds with</tspan><tspan x="2436" dy="23">EAS</tspan></text>

  <line x1="820" y1="1507" x2="860" y2="1507" stroke="#e86c00" stroke-width="4" marker-end="url(#arrowOrange)"/>
  <line x1="1315" y1="1507" x2="1355" y2="1507" stroke="#e86c00" stroke-width="4" marker-end="url(#arrowOrange)"/>
  <line x1="1880" y1="1507" x2="1920" y2="1507" stroke="#d7261f" stroke-width="4" marker-end="url(#arrowRed)"/>
  <line x1="2355" y1="1507" x2="2395" y2="1507" stroke="#e86c00" stroke-width="4" marker-end="url(#arrowOrange)"/>

  <rect x="365" y="1714" width="510" height="158" rx="14" fill="#edf8f1" stroke="#0f7a43" stroke-width="3.2" opacity="1" filter="url(#softShadow)"/>
<rect x="367" y="1716" width="506" height="52" rx="12" fill="#ffffff" opacity="0.88"/>
<text x="387" y="1748" text-anchor="start" font-size="24" font-weight="800" fill="#0f7a43" style=""><tspan x="387" dy="0">Artifacts + observability</tspan></text>
<text x="387" y="1780" text-anchor="start" font-size="16" font-weight="600" fill="#5c6676" style="font-style:italic;"><tspan x="387" dy="0">Reports make failures reviewable instead of opaque</tspan></text>
  <circle cx="390" cy="1789" r="4.6" fill="#0f7a43"/>
<text x="407" y="1796" text-anchor="start" font-size="18" font-weight="500" fill="#1f2a3d" style=""><tspan x="407" dy="0">Playwright reports</tspan></text>
<circle cx="390" cy="1818" r="4.6" fill="#0f7a43"/>
<text x="407" y="1825" text-anchor="start" font-size="18" font-weight="500" fill="#1f2a3d" style=""><tspan x="407" dy="0">Maestro screenshots + logcat</tspan></text>
<circle cx="390" cy="1847" r="4.6" fill="#0f7a43"/>
<text x="407" y="1854" text-anchor="start" font-size="18" font-weight="500" fill="#1f2a3d" style=""><tspan x="407" dy="0">Sentry and Cloudflare logs after deploy</tspan></text>
  <rect x="925" y="1714" width="480" height="158" rx="14" fill="#f5efff" stroke="#6f2dbd" stroke-width="3.2" opacity="1" filter="url(#softShadow)"/>
<rect x="927" y="1716" width="476" height="52" rx="12" fill="#ffffff" opacity="0.88"/>
<text x="947" y="1748" text-anchor="start" font-size="24" font-weight="800" fill="#6f2dbd" style=""><tspan x="947" dy="0">Advisory automation</tspan></text>
<text x="947" y="1780" text-anchor="start" font-size="16" font-weight="600" fill="#5c6676" style="font-style:italic;"><tspan x="947" dy="0">Helpful, but not a substitute for review protocol</tspan></text>
  <circle cx="950" cy="1789" r="4.6" fill="#6f2dbd"/>
<text x="967" y="1796" text-anchor="start" font-size="18" font-weight="500" fill="#1f2a3d" style=""><tspan x="967" dy="0">Claude Code Review comments</tspan></text>
<circle cx="950" cy="1818" r="4.6" fill="#6f2dbd"/>
<text x="967" y="1825" text-anchor="start" font-size="18" font-weight="500" fill="#1f2a3d" style=""><tspan x="967" dy="0">@claude issue and PR comment workflow</tspan></text>
<circle cx="950" cy="1847" r="4.6" fill="#6f2dbd"/>
<text x="967" y="1854" text-anchor="start" font-size="18" font-weight="500" fill="#1f2a3d" style=""><tspan x="967" dy="0">Self-healing CI proposals</tspan></text>
  <rect x="1455" y="1714" width="570" height="158" rx="14" fill="#fff1f0" stroke="#d7261f" stroke-width="3.2" opacity="1" filter="url(#softShadow)"/>
<rect x="1457" y="1716" width="566" height="52" rx="12" fill="#ffffff" opacity="0.88"/>
<text x="1477" y="1748" text-anchor="start" font-size="24" font-weight="800" fill="#d7261f" style=""><tspan x="1477" dy="0">Required verification rule</tspan></text>
<text x="1477" y="1780" text-anchor="start" font-size="16" font-weight="600" fill="#5c6676" style="font-style:italic;"><tspan x="1477" dy="0">Changed code is not fixed code</tspan></text>
  <circle cx="1480" cy="1789" r="4.6" fill="#d7261f"/>
<text x="1497" y="1796" text-anchor="start" font-size="18" font-weight="500" fill="#1f2a3d" style=""><tspan x="1497" dy="0">Run related tests, lint, and typecheck</tspan></text>
<circle cx="1480" cy="1818" r="4.6" fill="#d7261f"/>
<text x="1497" y="1825" text-anchor="start" font-size="18" font-weight="500" fill="#1f2a3d" style=""><tspan x="1497" dy="0">Break tests for security/data fixes</tspan></text>
<circle cx="1480" cy="1847" r="4.6" fill="#d7261f"/>
<text x="1497" y="1854" text-anchor="start" font-size="18" font-weight="500" fill="#1f2a3d" style=""><tspan x="1497" dy="0">No suppressions or shortcuts</tspan></text>
  <rect x="2075" y="1714" width="680" height="158" rx="14" fill="#eef6ff" stroke="#0b56b3" stroke-width="3.2" opacity="1" filter="url(#softShadow)"/>
<rect x="2077" y="1716" width="676" height="52" rx="12" fill="#ffffff" opacity="0.88"/>
<text x="2097" y="1748" text-anchor="start" font-size="24" font-weight="800" fill="#0b56b3" style=""><tspan x="2097" dy="0">Merge readiness</tspan></text>
<text x="2097" y="1780" text-anchor="start" font-size="16" font-weight="600" fill="#5c6676" style="font-style:italic;"><tspan x="2097" dy="0">The last mile is explicit</tspan></text>
  <circle cx="2100" cy="1789" r="4.6" fill="#0b56b3"/>
<text x="2117" y="1796" text-anchor="start" font-size="18" font-weight="500" fill="#1f2a3d" style=""><tspan x="2117" dy="0">gh pr diff shows the actual changed files</tspan></text>
<circle cx="2100" cy="1818" r="4.6" fill="#0b56b3"/>
<text x="2117" y="1825" text-anchor="start" font-size="18" font-weight="500" fill="#1f2a3d" style=""><tspan x="2117" dy="0">gh pr checks must pass, including automated review signals</tspan></text>
<circle cx="2100" cy="1847" r="4.6" fill="#0b56b3"/>
<text x="2117" y="1854" text-anchor="start" font-size="18" font-weight="500" fill="#1f2a3d" style=""><tspan x="2117" dy="0">Review comments are triaged by severity before merge</tspan></text>

  <rect x="28" y="1902" width="3016" height="126" rx="14" fill="#fffdf6" stroke="#05234d" stroke-width="2.5" opacity="1"/>
  <text x="54" y="1940" text-anchor="start" font-size="22" font-weight="900" fill="#05234d" style=""><tspan x="54" dy="0">LEGEND</tspan></text>
  <line x1="190" y1="1936" x2="284" y2="1936" stroke="#0b56b3" stroke-width="4" marker-end="url(#arrowBlue)"/>
  <text x="300" y="1943" text-anchor="start" font-size="18" font-weight="700" fill="#1f2a3d" style=""><tspan x="300" dy="0">Control / workflow dependency</tspan></text>
  <line x1="600" y1="1936" x2="694" y2="1936" stroke="#0f7a43" stroke-width="4" marker-end="url(#arrowGreen)"/>
  <text x="710" y="1943" text-anchor="start" font-size="18" font-weight="700" fill="#1f2a3d" style=""><tspan x="710" dy="0">Database / test data setup</tspan></text>
  <line x1="995" y1="1936" x2="1089" y2="1936" stroke="#6f2dbd" stroke-width="4" stroke-dasharray="10 8" marker-end="url(#arrowPurple)"/>
  <text x="1105" y="1943" text-anchor="start" font-size="18" font-weight="700" fill="#1f2a3d" style=""><tspan x="1105" dy="0">Conditional E2E or advisory lane</tspan></text>
  <line x1="1470" y1="1936" x2="1564" y2="1936" stroke="#e86c00" stroke-width="4" marker-end="url(#arrowOrange)"/>
  <text x="1580" y="1943" text-anchor="start" font-size="18" font-weight="700" fill="#1f2a3d" style=""><tspan x="1580" dy="0">Release / deploy path</tspan></text>
  <line x1="1875" y1="1936" x2="1969" y2="1936" stroke="#d7261f" stroke-width="4" marker-end="url(#arrowRed)"/>
  <text x="1985" y="1943" text-anchor="start" font-size="18" font-weight="700" fill="#1f2a3d" style=""><tspan x="1985" dy="0">Risk / guardrail check</tspan></text>
  <rect x="2290" y="1912" width="142" height="48" rx="10" fill="#eef6ff" stroke="#0b56b3" stroke-width="2.4" opacity="1"/>
<text x="2361" y="1942.3333333333333" text-anchor="middle" font-size="19" font-weight="700" fill="#0b56b3" style=""><tspan x="2361" dy="0">Required</tspan></text>
  <rect x="2455" y="1912" width="142" height="48" rx="10" fill="#f5efff" stroke="#6f2dbd" stroke-width="2.4" opacity="1"/>
<text x="2526" y="1942.3333333333333" text-anchor="middle" font-size="19" font-weight="700" fill="#6f2dbd" style=""><tspan x="2526" dy="0">Advisory</tspan></text>
  <rect x="2620" y="1912" width="160" height="48" rx="10" fill="#fff3e6" stroke="#e86c00" stroke-width="2.4" opacity="1"/>
<text x="2700" y="1942.3333333333333" text-anchor="middle" font-size="19" font-weight="700" fill="#e86c00" style=""><tspan x="2700" dy="0">Manual</tspan></text>
  <rect x="2805" y="1912" width="176" height="48" rx="10" fill="#edf8f1" stroke="#0f7a43" stroke-width="2.4" opacity="1"/>
<text x="2893" y="1942.3333333333333" text-anchor="middle" font-size="19" font-weight="700" fill="#0f7a43" style=""><tspan x="2893" dy="0">Scheduled</tspan></text>

  <text x="54" y="1992" text-anchor="start" font-size="18" font-weight="600" fill="#5c6676" style=""><tspan x="54" dy="0">Source: .github/workflows/{ci,e2e-ci,e2e-web,mobile-ci,deploy,claude-code-review,claude}.yml and AGENTS.md validation rules. Counts snapshot: 2026-05-01.</tspan></text>
</svg>
